<svg width="400" height="449" viewBox="0 0 400 449" fill="none" xmlns="http://www.w3.org/2000/svg">
<g filter="url(#filter0_d_233_2679)">
<rect x="86.4625" y="141.053" width="140" height="136" rx="20" transform="rotate(-17.8071 86.4625 141.053)" fill="white"/>
</g>
<path d="M214.915 170.69C198.753 224.721 208.731 221.516 183.561 229.601C158.391 237.686 131.62 224.418 123.767 199.967C115.913 175.516 129.951 149.141 155.121 141.056C180.291 132.972 231.078 116.659 214.915 170.69Z" fill="#CDEBF4" fill-opacity="0.45"/>
<g clip-path="url(#clip0_233_2679)">
<path d="M179.844 169.531C170.804 162.667 161.018 160.619 157.611 164.894C157.238 165.374 156.954 165.912 156.77 166.484C156.781 166.518 153.084 189.463 153.084 189.463L148.667 194.948C147.989 195.791 147.486 196.753 147.186 197.78C146.886 198.807 146.795 199.878 146.919 200.932C147.042 201.986 147.378 203.003 147.906 203.924C148.434 204.845 149.144 205.652 149.996 206.299L150.364 206.579C152.081 207.87 154.262 208.439 156.433 208.163C158.604 207.887 160.59 206.788 161.961 205.104L175.092 215.088C176.924 216.248 179.972 217.009 182.512 214.145C182.956 213.617 183.282 213.006 183.471 212.351C183.659 211.696 183.706 211.012 183.608 210.343C183.532 209.67 183.319 209.022 182.984 208.434C182.648 207.847 182.195 207.332 181.651 206.92L170.078 198.108C170.078 198.108 188.347 190.642 188.408 190.593C188.955 190.286 189.435 189.876 189.821 189.389C191.575 187.205 191.384 183.868 189.288 179.987C187.374 176.408 184.024 172.735 179.844 169.531ZM151.971 204.585L151.603 204.305C151.015 203.858 150.525 203.301 150.161 202.665C149.797 202.03 149.566 201.328 149.482 200.6C149.397 199.873 149.461 199.134 149.669 198.425C149.877 197.717 150.225 197.053 150.694 196.472L154.504 191.722L163.823 198.805L160.012 203.555C159.544 204.137 158.965 204.626 158.308 204.993C157.651 205.36 156.928 205.598 156.182 205.694C155.435 205.789 154.679 205.741 153.956 205.55C153.234 205.36 152.559 205.032 151.971 204.585ZM180.065 208.907C180.625 209.337 180.984 209.97 181.063 210.666C181.142 211.362 180.934 212.065 180.486 212.621C180.035 213.176 179.38 213.538 178.665 213.627C177.949 213.716 177.232 213.525 176.669 213.096L163.579 203.144L166.42 199.606L167.348 199.225L180.065 208.907ZM165.843 197.135L155.686 189.414L158.1 174.137C159.931 177.623 163.223 181.404 167.616 184.742C172.009 188.08 176.575 190.275 180.49 191.163L165.843 197.135ZM185.986 188.917C182.572 189.781 175.948 187.865 169.213 182.744C162.479 177.622 158.973 171.854 159.004 168.415C159.003 167.772 159.209 167.142 159.594 166.614C159.98 166.086 160.524 165.687 161.149 165.475C164.467 164.41 171.301 166.281 178.23 171.55C182.131 174.513 185.362 177.887 187.017 181.212C190.207 187.562 185.986 188.917 185.986 188.917Z" fill="#0075FF"/>
<path d="M171.174 172.594C170.264 172.706 169.383 172.993 168.582 173.44C167.781 173.886 167.077 174.483 166.51 175.194C166.406 175.326 166.329 175.477 166.284 175.637C166.239 175.797 166.226 175.963 166.247 176.127C166.268 176.291 166.321 176.448 166.405 176.591C166.488 176.733 166.6 176.858 166.733 176.957C166.866 177.057 167.019 177.129 167.182 177.171C167.345 177.212 167.516 177.222 167.683 177.199C167.851 177.176 168.014 177.121 168.161 177.037C168.308 176.953 168.438 176.842 168.542 176.71C168.902 176.263 169.347 175.887 169.852 175.605C170.358 175.323 170.914 175.14 171.488 175.067C172.062 174.994 172.643 175.031 173.199 175.178C173.754 175.324 174.273 175.577 174.725 175.921C175.178 176.264 175.554 176.693 175.835 177.182C176.115 177.671 176.293 178.211 176.358 178.771C176.423 179.33 176.375 179.899 176.216 180.444C176.056 180.989 175.789 181.5 175.429 181.948C175.261 182.161 175.165 182.421 175.157 182.688C175.149 182.956 175.229 183.217 175.385 183.435C175.542 183.652 175.766 183.814 176.025 183.896C176.284 183.978 176.565 183.977 176.826 183.892C177.077 183.817 177.299 183.667 177.461 183.463C178.32 182.397 178.839 181.111 178.954 179.768C179.069 178.426 178.773 177.087 178.105 175.921C177.437 174.755 176.427 173.815 175.201 173.22C173.976 172.625 172.591 172.402 171.223 172.578L171.174 172.594Z" fill="#0075FF"/>
<path d="M178.698 160.769L178.817 160.731C179.12 160.634 179.377 160.431 179.538 160.161C179.7 159.892 179.755 159.575 179.692 159.272L177.771 150.046C177.742 149.881 177.679 149.725 177.586 149.585C177.494 149.446 177.373 149.326 177.231 149.234C177.09 149.141 176.93 149.078 176.762 149.048C176.594 149.017 176.42 149.02 176.252 149.056C176.084 149.092 175.924 149.16 175.782 149.257C175.641 149.354 175.52 149.477 175.427 149.62C175.334 149.762 175.271 149.921 175.242 150.086C175.212 150.252 175.217 150.421 175.256 150.584L177.186 159.814C177.254 160.139 177.451 160.422 177.734 160.601C178.018 160.78 178.364 160.84 178.698 160.769Z" fill="#0075FF"/>
<path d="M193.943 153.847C193.679 153.641 193.34 153.547 193.001 153.586C192.662 153.625 192.35 153.793 192.133 154.053L185.347 162.235C185.171 162.448 185.07 162.71 185.058 162.982C185.047 163.253 185.127 163.52 185.285 163.741C185.443 163.962 185.671 164.125 185.935 164.207C186.199 164.288 186.484 164.283 186.748 164.193C186.997 164.119 187.22 163.974 187.387 163.778L194.173 155.596C194.38 155.33 194.472 154.997 194.429 154.669C194.385 154.341 194.211 154.046 193.943 153.847Z" fill="#0075FF"/>
<path d="M201.22 167.534L190.736 168.989C190.398 169.036 190.091 169.212 189.881 169.478C189.672 169.744 189.579 170.079 189.621 170.408C189.663 170.738 189.838 171.036 190.107 171.235C190.377 171.435 190.718 171.521 191.056 171.474L201.533 170.022L201.75 169.952C202.065 169.861 202.334 169.656 202.503 169.38C202.672 169.103 202.727 168.776 202.658 168.465C202.589 168.154 202.4 167.882 202.13 167.706C201.86 167.53 201.53 167.462 201.207 167.516L201.22 167.534Z" fill="#0075FF"/>
</g>
<defs>
<filter id="filter0_d_233_2679" x="-51.3848" y="0.39209" width="450.578" height="447.993" filterUnits="userSpaceOnUse" color-interpolation-filters="sRGB">
<feFlood flood-opacity="0" result="BackgroundImageFix"/>
<feColorMatrix in="SourceAlpha" type="matrix" values="0 0 0 0 0 0 0 0 0 0 0 0 0 0 0 0 0 0 127 0" result="hardAlpha"/>
<feOffset dy="40"/>
<feGaussianBlur stdDeviation="71.5"/>
<feComposite in2="hardAlpha" operator="out"/>
<feColorMatrix type="matrix" values="0 0 0 0 0 0 0 0 0 0.0592647 0 0 0 0 0.129167 0 0 0 0.15 0"/>
<feBlend mode="normal" in2="BackgroundImageFix" result="effect1_dropShadow_233_2679"/>
<feBlend mode="normal" in="SourceGraphic" in2="effect1_dropShadow_233_2679" result="shape"/>
</filter>
<clipPath id="clip0_233_2679">
<rect width="66.9118" height="65" fill="white" transform="translate(132.449 163.043) rotate(-17.8071)"/>
</clipPath>
</defs>
</svg>
